<?xml version="1.0" encoding="UTF-8" standalone="no"?>
<!DOCTYPE svg PUBLIC "-//W3C//DTD SVG 1.1//EN" "http://www.w3.org/Graphics/SVG/1.1/DTD/svg11.dtd">
<svg version="1.1" xmlns="http://www.w3.org/2000/svg" xmlns:xlink="http://www.w3.org/1999/xlink" preserveAspectRatio="xMidYMid meet" viewBox="0 0 470 303" width="470" height="303"><defs><path d="M433.06 299.45L354.92 299.45L431.72 138.01L465.72 188.15L465.72 188.15L433.06 299.45Z" id="e1Caz3HcS"></path><path d="M208.6 299.45L278.38 299.45L324.56 4L248.15 4L248.15 4L208.6 299.45Z" id="b1jy8MpbwD"></path><path d="M351.45 300.96L434.61 300.96L329.45 4L249.62 4L249.62 4L351.45 300.96Z" id="anTJGJQrh"></path><path d="M432.48 299.45L352.52 299.45L251.22 4L248.02 4L349.67 300.42L350.38 302.47L352.52 302.47L432.48 302.47L436.7 302.47L435.28 298.47L331 4L327.85 4L327.85 4L432.48 299.45Z" id="f2fmyS3gUC"></path><path d="M55.74 299.45L125.52 299.45L171.66 4L95.25 4L95.25 4L55.74 299.45Z" id="bUpXyjtFd"></path><path d="M198.55 300.96L281.71 300.96L176.55 4L96.72 4L96.72 4L198.55 300.96Z" id="b2RDl1yUis"></path><path d="M279.58 299.45L199.62 299.45L98.32 4L95.17 4L196.82 300.42L197.48 302.47L199.62 302.47L279.58 302.47L283.84 302.47L282.42 298.47L178.15 4L174.95 4L174.95 4L279.58 299.45Z" id="d14fdg7BUh"></path><path d="M1.78 171.75L49.65 128.81L127.83 300.96L44.49 300.96L44.49 300.96L1.78 171.75Z" id="a2tU5Y9gUG"></path><path d="M49.12 131.3L125.52 299.45L45.52 299.45L3.47 172.19L49.12 131.3ZM50.18 126.32L47.12 129.03L1.47 169.93L0 171.26L0.63 173.13L42.67 300.38L43.38 302.47L130.19 302.47L128.23 298.02L51.87 130.06L50.18 126.32Z" id="brYjVT0FR"></path></defs><g><g><g><use xlink:href="#e1Caz3HcS" opacity="1" fill="#6d6f71" fill-opacity="1"></use><g><use xlink:href="#e1Caz3HcS" opacity="1" fill-opacity="0" stroke="#000000" stroke-width="1" stroke-opacity="0"></use></g></g><g><use xlink:href="#b1jy8MpbwD" opacity="1" fill="#6d6f71" fill-opacity="1"></use><g><use xlink:href="#b1jy8MpbwD" opacity="1" fill-opacity="0" stroke="#000000" stroke-width="1" stroke-opacity="0"></use></g></g><g><use xlink:href="#anTJGJQrh" opacity="1" fill="#00aeef" fill-opacity="1"></use><g><use xlink:href="#anTJGJQrh" opacity="1" fill-opacity="0" stroke="#000000" stroke-width="1" stroke-opacity="0"></use></g></g><g><use xlink:href="#f2fmyS3gUC" opacity="1" fill="#ffffff" fill-opacity="1"></use><g><use xlink:href="#f2fmyS3gUC" opacity="1" fill-opacity="0" stroke="#000000" stroke-width="1" stroke-opacity="0"></use></g></g><g><use xlink:href="#bUpXyjtFd" opacity="1" fill="#6d6f71" fill-opacity="1"></use><g><use xlink:href="#bUpXyjtFd" opacity="1" fill-opacity="0" stroke="#000000" stroke-width="1" stroke-opacity="0"></use></g></g><g><use xlink:href="#b2RDl1yUis" opacity="1" fill="#00aeef" fill-opacity="1"></use><g><use xlink:href="#b2RDl1yUis" opacity="1" fill-opacity="0" stroke="#000000" stroke-width="1" stroke-opacity="0"></use></g></g><g><use xlink:href="#d14fdg7BUh" opacity="1" fill="#ffffff" fill-opacity="1"></use><g><use xlink:href="#d14fdg7BUh" opacity="1" fill-opacity="0" stroke="#000000" stroke-width="1" stroke-opacity="0"></use></g></g><g><use xlink:href="#a2tU5Y9gUG" opacity="1" fill="#00aeef" fill-opacity="1"></use><g><use xlink:href="#a2tU5Y9gUG" opacity="1" fill-opacity="0" stroke="#000000" stroke-width="1" stroke-opacity="0"></use></g></g><g><use xlink:href="#brYjVT0FR" opacity="1" fill="#ffffff" fill-opacity="1"></use><g><use xlink:href="#brYjVT0FR" opacity="1" fill-opacity="0" stroke="#000000" stroke-width="1" stroke-opacity="0"></use></g></g></g></g></svg>