<svg id="Layer_1" data-name="Layer 1" xmlns="http://www.w3.org/2000/svg" viewBox="0 0 395.47 54.7"><defs><style>.cls-1{fill:#00aeef;}</style></defs><path class="cls-1" d="M184.85,304.72q-8.67-2.49-12.63-6.13a11.72,11.72,0,0,1-4-9,12.37,12.37,0,0,1,4.83-10q4.84-4,12.57-4a21,21,0,0,1,9.41,2,15.54,15.54,0,0,1,6.4,5.62,14.43,14.43,0,0,1,2.26,7.84H197a9.4,9.4,0,0,0-2.95-7.32q-3-2.65-8.34-2.66-5,0-7.78,2.2a7.34,7.34,0,0,0-2.8,6.11,6.6,6.6,0,0,0,2.66,5.3c1.76,1.45,4.78,2.77,9,4a42.07,42.07,0,0,1,10,4,15.12,15.12,0,0,1,5.35,5.05,12.86,12.86,0,0,1,1.74,6.78,12,12,0,0,1-4.85,10q-4.86,3.75-13,3.74a24,24,0,0,1-9.84-2,16.49,16.49,0,0,1-7-5.53,13.56,13.56,0,0,1-2.48-8h6.79a8.82,8.82,0,0,0,3.43,7.33q3.42,2.68,9.15,2.68c3.57,0,6.3-.72,8.2-2.18a7.09,7.09,0,0,0,2.84-5.94,7,7,0,0,0-2.63-5.81Q191.78,306.72,184.85,304.72Z" transform="translate(-166.64 -273.54)"/><path class="cls-1" d="M235,327.54a13.66,13.66,0,0,1-.91-4,14.52,14.52,0,0,1-10.83,4.71,13.43,13.43,0,0,1-9.23-3.18,10.3,10.3,0,0,1-3.6-8.07,10.72,10.72,0,0,1,4.52-9.22q4.51-3.3,12.7-3.29h6.33v-3a7.31,7.31,0,0,0-2-5.43q-2-2-6-2a9.47,9.47,0,0,0-5.83,1.75,5.2,5.2,0,0,0-2.36,4.26h-6.54a9,9,0,0,1,2-5.5,13.8,13.8,0,0,1,5.49-4.2,18.3,18.3,0,0,1,7.61-1.55q6.57,0,10.3,3.29a11.88,11.88,0,0,1,3.87,9.05v17.51a21.42,21.42,0,0,0,1.33,8.33v.56Zm-10.79-5A11.38,11.38,0,0,0,230,321a9.5,9.5,0,0,0,4-4.11v-7.81h-5.1q-11.94,0-12,7a5.92,5.92,0,0,0,2,4.78A7.84,7.84,0,0,0,224.16,322.58Z" transform="translate(-166.64 -273.54)"/><path class="cls-1" d="M257.7,327.54h-6.51v-54h6.51Z" transform="translate(-166.64 -273.54)"/><path class="cls-1" d="M268.14,279.41a3.87,3.87,0,0,1,1-2.67,3.61,3.61,0,0,1,2.86-1.09,3.65,3.65,0,0,1,2.88,1.09,3.84,3.84,0,0,1,1,2.67,3.7,3.7,0,0,1-1,2.64A3.74,3.74,0,0,1,272,283.1a3.49,3.49,0,0,1-3.83-3.69Zm7,48.13h-6.5v-38h6.5Z" transform="translate(-166.64 -273.54)"/><path class="cls-1" d="M298.13,318.72l9.42-29.22h6.64l-13.64,38H295.6l-13.78-38h6.64Z" transform="translate(-166.64 -273.54)"/><path class="cls-1" d="M343.41,327.54a13.34,13.34,0,0,1-.91-4,14.54,14.54,0,0,1-10.83,4.71,13.43,13.43,0,0,1-9.23-3.18,10.31,10.31,0,0,1-3.61-8.07,10.74,10.74,0,0,1,4.52-9.22q4.51-3.3,12.71-3.29h6.33v-3a7.31,7.31,0,0,0-2-5.43q-2-2-6-2a9.5,9.5,0,0,0-5.84,1.75,5.19,5.19,0,0,0-2.35,4.26h-6.54a9,9,0,0,1,2-5.5,13.84,13.84,0,0,1,5.48-4.2,18.34,18.34,0,0,1,7.62-1.55q6.57,0,10.3,3.29a11.84,11.84,0,0,1,3.86,9.05v17.51a21.4,21.4,0,0,0,1.34,8.33v.56Zm-10.79-5a11.38,11.38,0,0,0,5.8-1.58,9.5,9.5,0,0,0,4-4.11v-7.81h-5.1q-12,0-12,7a5.92,5.92,0,0,0,2,4.78A7.82,7.82,0,0,0,332.62,322.58Z" transform="translate(-166.64 -273.54)"/><path class="cls-1" d="M398.92,310.49q-.6,8.26-6.1,13t-14.5,4.74q-9.84,0-15.49-6.62t-5.64-18.2v-3.13a30.72,30.72,0,0,1,2.6-13,19.47,19.47,0,0,1,7.44-8.63,20.75,20.75,0,0,1,11.23-3q8.87,0,14.27,4.75T399,293.72H388.44q-.37-5-2.76-7.19t-7.22-2.23q-5.28,0-7.89,3.78t-2.69,11.72v3.87q0,8.29,2.51,12.13t7.93,3.83q4.89,0,7.29-2.23t2.76-6.91Z" transform="translate(-166.64 -273.54)"/><path class="cls-1" d="M415.9,327.54H405.71v-54H415.9Z" transform="translate(-166.64 -273.54)"/><path class="cls-1" d="M441.78,328.24q-8.37,0-13.63-5.13t-5.25-13.67v-1a23.07,23.07,0,0,1,2.21-10.25,16.28,16.28,0,0,1,6.28-7,17.57,17.57,0,0,1,9.26-2.44q7.8,0,12.29,4.92t4.48,14v4.15H433.2a9.45,9.45,0,0,0,3,6,9,9,0,0,0,6.27,2.25,11,11,0,0,0,9.18-4.25l5,5.59a15.17,15.17,0,0,1-6.19,5A20.23,20.23,0,0,1,441.78,328.24ZM440.62,297a6.35,6.35,0,0,0-4.91,2.05,10.68,10.68,0,0,0-2.41,5.86h14.14v-.81a7.61,7.61,0,0,0-1.83-5.25A6.57,6.57,0,0,0,440.62,297Z" transform="translate(-166.64 -273.54)"/><path class="cls-1" d="M485.23,327.54a11.18,11.18,0,0,1-1-3.41,12.3,12.3,0,0,1-9.6,4.11,13.49,13.49,0,0,1-9.26-3.23,10.42,10.42,0,0,1-3.68-8.16,10.76,10.76,0,0,1,4.49-9.28q4.48-3.22,12.95-3.27h4.68v-2.18a6.26,6.26,0,0,0-1.36-4.22,5.33,5.33,0,0,0-4.27-1.58,6,6,0,0,0-4,1.23,4.2,4.2,0,0,0-1.46,3.38H462.52a10.23,10.23,0,0,1,2-6.12,13.55,13.55,0,0,1,5.76-4.41,21,21,0,0,1,8.37-1.6q7,0,11.16,3.53t4.13,9.93v16.49c0,3.61.53,6.34,1.52,8.19v.6Zm-8.4-7.07a8.74,8.74,0,0,0,4.15-1,6.59,6.59,0,0,0,2.81-2.69v-6.54H480q-7.62,0-8.12,5.28l0,.6a4.06,4.06,0,0,0,1.34,3.12A5.19,5.19,0,0,0,476.83,320.47Z" transform="translate(-166.64 -273.54)"/><path class="cls-1" d="M523.16,299a27.1,27.1,0,0,0-3.65-.28q-5.78,0-7.56,3.9v24.89H501.79v-38h9.6l.28,4.54q3.06-5.25,8.47-5.24a10.45,10.45,0,0,1,3.16.46Z" transform="translate(-166.64 -273.54)"/><path class="cls-1" d="M541.34,279.2h-5.17v16H533v-16h-5.2v-2.85h13.57ZM559,281.38,554,295.23H552.2l-4.92-13.81v13.81h-3.16V276.35h3.93l5.07,14,5.06-14h3.94v18.88H559Z" transform="translate(-166.64 -273.54)"/></svg>