<svg id="Layer_1" data-name="Layer 1" xmlns="http://www.w3.org/2000/svg" viewBox="0 0 143.99 97.97"><defs><style>.cls-1{fill:#595a5c;}.cls-2{fill:#6d6f71;}.cls-3{fill:#00aeef;}.cls-4{fill:#fff;}</style></defs><path class="cls-1" d="M37.36,138.47H34.61l2.2-14a9.58,9.58,0,0,1-1,2l-7.3,11.91H26.33l-3.08-11.18a6.77,6.77,0,0,1-.33-2.16V125l-2.13,13.49H18L20.79,121h3.56L28,133.89a5.33,5.33,0,0,1,.11,1v.45a9.64,9.64,0,0,1,.55-1.4l8-12.94h3.51Z" transform="translate(-18.01 -41.02)"/><polygon class="cls-1" points="32.58 97.46 29.79 97.46 32.58 79.94 35.33 79.94 32.58 97.46"/><path class="cls-1" d="M70.49,131.11l3.66,7.36H70.92l-3.47-7.15H64.92l-1.14,7.15H61L63.78,121h5.9c3.85,0,5.75,1.4,5.75,4.14a6.09,6.09,0,0,1-4.94,6m1.21-7.37c-.55-.44-.74-.48-2.75-.48H66.2L65.28,129H68c1.8,0,2.2-.08,3-.74a3.45,3.45,0,0,0,1.36-2.82,2.12,2.12,0,0,0-.73-1.72" transform="translate(-18.01 -41.02)"/><polygon class="cls-1" points="66.4 97.46 63.62 97.46 66.4 79.94 69.15 79.94 66.4 97.46"/><path class="cls-1" d="M114.17,138.47h-2.75l2.2-14a9.58,9.58,0,0,1-1,2l-7.29,11.91h-2.2l-3.08-11.18a6.77,6.77,0,0,1-.33-2.16V125L97.6,138.47H94.82L97.6,121h3.56l3.63,12.94a5.33,5.33,0,0,1,.11,1v.45a9.64,9.64,0,0,1,.55-1.4l8-12.94H117Z" transform="translate(-18.01 -41.02)"/><path class="cls-1" d="M140.26,131.32c-.55,3.49-1.54,5.25-3.55,6.35A12.17,12.17,0,0,1,131.5,139a9.67,9.67,0,0,1-4.8-1.31,4.07,4.07,0,0,1-1.76-3.74,15.81,15.81,0,0,1,.19-2.61L126.77,121h2.79l-1.72,10.85a7.35,7.35,0,0,0-.11,1.32c0,2.24,1.46,3.52,4.11,3.52,3.18,0,5-1.65,5.56-4.84L139.13,121h2.78Z" transform="translate(-18.01 -41.02)"/><path class="cls-1" d="M160.64,124.43a5.6,5.6,0,0,0-2-1.06,7.24,7.24,0,0,0-2.39-.36c-2.42,0-4,1-4,2.53,0,.95.66,1.46,4.18,3.29,2.71,1.4,3.63,2.5,3.63,4.18,0,3.45-2.9,5.79-7.23,5.79a9.25,9.25,0,0,1-3.48-.55,10.67,10.67,0,0,1-2.27-1.32l1.61-2.38a7.66,7.66,0,0,0,2.06,1.39,6.92,6.92,0,0,0,2.78.59c2.27,0,3.7-1.1,3.7-2.82,0-.88-.51-1.54-1.61-2.13l-3-1.54c-2.12-1.09-3.19-2.45-3.19-3.92,0-3.19,3-5.46,7.19-5.46a11,11,0,0,1,3.19.44,8,8,0,0,1,2.19,1Z" transform="translate(-18.01 -41.02)"/><polygon class="cls-2" points="124.82 41.43 117.47 66.47 99.89 66.47 117.17 30.15 124.82 41.43"/><polygon class="cls-2" points="75.87 0 66.97 66.47 82.67 66.47 93.06 0 75.87 0"/><polygon class="cls-3" points="76.2 0 99.11 66.81 117.82 66.81 94.16 0 76.2 0"/><polygon class="cls-4" points="93.8 0 117.34 66.47 99.35 66.47 76.56 0 75.84 0 98.71 66.69 98.87 67.15 99.35 67.15 117.34 67.15 118.29 67.15 117.97 66.25 94.51 0 93.8 0"/><polygon class="cls-2" points="41.47 0 32.58 66.47 48.28 66.47 58.66 0 41.47 0"/><polygon class="cls-3" points="41.8 0 64.71 66.81 83.42 66.81 59.76 0 41.8 0"/><polygon class="cls-4" points="59.4 0 82.94 66.47 64.95 66.47 42.16 0 41.45 0 64.32 66.69 64.47 67.15 64.95 67.15 82.94 67.15 83.9 67.15 83.58 66.25 60.12 0 59.4 0"/><polygon class="cls-3" points="30.05 66.81 20.44 37.74 31.21 28.08 48.8 66.81 30.05 66.81"/><path class="cls-4" d="M49.1,69.66l17.19,37.83h-18L38.83,78.86Zm.24-1.12-.69.61-10.27,9.2-.33.3.14.42,9.46,28.63.16.47H67.34l-.44-1L49.72,69.38Z" transform="translate(-18.01 -41.02)"/></svg>